<svg width="70" height="70" viewBox="0 0 70 70" fill="none" xmlns="http://www.w3.org/2000/svg">
<g filter="url(#filter0_d_156_289)">
<circle cx="35" cy="31" r="25" fill="#D9D9D9"/>
</g>
<path d="M32.6667 37.4441L32.6667 23.0599C32.6658 22.492 32.8258 21.9355 33.1282 21.4548C33.4305 20.9741 33.8628 20.5889 34.375 20.3437C34.9827 20.0566 35.6589 19.946 36.3264 20.0246C36.9939 20.1031 37.6259 20.3676 38.1504 20.7878L46.8629 27.9799C47.1886 28.2622 47.4497 28.6111 47.6287 29.0031C47.8078 29.3951 47.9004 29.821 47.9004 30.252C47.9004 30.6829 47.8078 31.1089 47.6287 31.5009C47.4497 31.8929 47.1886 32.2418 46.8629 32.5241L38.1504 39.7162C37.6259 40.1364 36.9939 40.4009 36.3264 40.4794C35.6589 40.5579 34.9827 40.4474 34.375 40.1603C33.8628 39.9151 33.4305 39.5299 33.1282 39.0491C32.8258 38.5684 32.6658 38.0119 32.6667 37.4441Z" fill="#1E1E1E"/>
<path d="M23 30.752H40.5" stroke="#1E1E1E" stroke-width="6" stroke-linecap="round"/>
<defs>
<filter id="filter0_d_156_289" x="0" y="0" width="70" height="70" filterUnits="userSpaceOnUse" color-interpolation-filters="sRGB">
<feFlood flood-opacity="0" result="BackgroundImageFix"/>
<feColorMatrix in="SourceAlpha" type="matrix" values="0 0 0 0 0 0 0 0 0 0 0 0 0 0 0 0 0 0 127 0" result="hardAlpha"/>
<feOffset dy="4"/>
<feGaussianBlur stdDeviation="5"/>
<feComposite in2="hardAlpha" operator="out"/>
<feColorMatrix type="matrix" values="0 0 0 0 0 0 0 0 0 0 0 0 0 0 0 0 0 0 0.15 0"/>
<feBlend mode="normal" in2="BackgroundImageFix" result="effect1_dropShadow_156_289"/>
<feBlend mode="normal" in="SourceGraphic" in2="effect1_dropShadow_156_289" result="shape"/>
</filter>
</defs>
</svg>
