<svg width="106" height="34" viewBox="0 0 106 34" fill="none" xmlns="http://www.w3.org/2000/svg">
<rect width="106" height="34" rx="17" fill="white"/>
<path d="M15.1016 21.7246C15.1016 21.209 15.1517 20.5072 15.252 19.6191C15.3665 18.7311 15.5241 17.7715 15.7246 16.7402C15.9395 15.709 16.2116 14.6706 16.541 13.625C16.8704 12.5651 17.2572 11.6126 17.7012 10.7676C18.1452 9.9082 18.6465 9.20638 19.2051 8.66211C19.778 8.11784 20.4082 7.8457 21.0957 7.8457C21.4824 7.8457 21.8118 7.91732 22.084 8.06055C22.3704 8.20378 22.6068 8.39714 22.793 8.64062C22.9792 8.88411 23.1152 9.16341 23.2012 9.47852C23.2871 9.79362 23.3301 10.1302 23.3301 10.4883C22.9434 10.6745 22.6497 10.7174 22.4492 10.6172C22.2487 10.5169 22.084 10.3665 21.9551 10.166C21.8405 9.95117 21.7259 9.72917 21.6113 9.5C21.4967 9.27083 21.332 9.1276 21.1172 9.07031C20.6016 9.07031 20.1289 9.32096 19.6992 9.82227C19.2695 10.3092 18.8828 10.9323 18.5391 11.6914C18.1953 12.4505 17.8945 13.2956 17.6367 14.2266C17.3789 15.1576 17.1641 16.0671 16.9922 16.9551C16.8203 17.8288 16.6914 18.6237 16.6055 19.3398C16.5195 20.056 16.4766 20.5859 16.4766 20.9297C16.4766 21.388 16.4909 21.832 16.5195 22.2617C16.5625 22.6771 16.6556 23.0495 16.7988 23.3789C16.9564 23.7083 17.1855 23.9733 17.4863 24.1738C17.7871 24.36 18.2096 24.4531 18.7539 24.4531C19.3984 24.4531 20.0286 24.2669 20.6445 23.8945C21.2747 23.5221 21.8477 23.0566 22.3633 22.498C22.8932 21.9395 23.3516 21.3451 23.7383 20.7148C24.1393 20.0703 24.4258 19.4902 24.5977 18.9746C24.6263 18.9603 24.6979 18.9531 24.8125 18.9531C24.9271 18.9388 24.9987 18.9316 25.0273 18.9316C25.2135 18.9316 25.3926 18.9531 25.5645 18.9961C25.7363 19.0391 25.8223 19.1823 25.8223 19.4258C25.722 19.9414 25.4928 20.4857 25.1348 21.0586C24.791 21.6172 24.3757 22.1686 23.8887 22.7129C23.416 23.2428 22.8932 23.7441 22.3203 24.2168C21.7617 24.6751 21.2103 25.0618 20.666 25.377C20.1217 25.6921 19.6133 25.9069 19.1406 26.0215C18.6823 26.1504 18.3099 26.1432 18.0234 26C17.5078 26 17.0638 25.8568 16.6914 25.5703C16.319 25.2695 16.0111 24.9043 15.7676 24.4746C15.5384 24.0449 15.3665 23.5866 15.252 23.0996C15.1517 22.5983 15.1016 22.14 15.1016 21.7246ZM29.2383 25.9141C28.6654 25.8424 28.1927 25.6133 27.8203 25.2266C27.4622 24.8398 27.1758 24.3672 26.9609 23.8086C26.7461 23.25 26.6029 22.6413 26.5312 21.9824C26.474 21.3092 26.4596 20.6504 26.4883 20.0059C26.5312 19.0176 26.7103 18.0723 27.0254 17.1699C27.3548 16.2676 27.7559 15.487 28.2285 14.8281C28.7155 14.1549 29.2454 13.6393 29.8184 13.2812C30.4056 12.9089 30.9785 12.7656 31.5371 12.8516C32.1243 12.9375 32.597 13.2168 32.9551 13.6895C33.3275 14.1621 33.6139 14.7422 33.8145 15.4297C34.015 16.1172 34.1367 16.8691 34.1797 17.6855C34.2227 18.4876 34.2155 19.2611 34.1582 20.0059C34.0866 20.8509 33.9004 21.6387 33.5996 22.3691C33.2988 23.0996 32.9193 23.7298 32.4609 24.2598C32.0169 24.7897 31.5085 25.2051 30.9355 25.5059C30.377 25.7923 29.8112 25.9284 29.2383 25.9141ZM31.3223 14.0762C30.8496 14.0189 30.4056 14.1693 29.9902 14.5273C29.5892 14.8711 29.224 15.3366 28.8945 15.9238C28.5794 16.4967 28.3145 17.1556 28.0996 17.9004C27.8848 18.6309 27.7415 19.3542 27.6699 20.0703C27.6126 20.5859 27.5911 21.1159 27.6055 21.6602C27.6198 22.2044 27.6842 22.6986 27.7988 23.1426C27.9277 23.5866 28.1211 23.9518 28.3789 24.2383C28.651 24.5104 29.0091 24.6465 29.4531 24.6465C29.8112 24.6608 30.1836 24.5391 30.5703 24.2812C30.9714 24.0234 31.3438 23.6797 31.6875 23.25C32.0312 22.806 32.332 22.3047 32.5898 21.7461C32.862 21.1875 33.041 20.6146 33.127 20.0273C33.2272 19.4115 33.2487 18.7812 33.1914 18.1367C33.1484 17.4779 33.041 16.8691 32.8691 16.3105C32.7116 15.752 32.4967 15.2721 32.2246 14.8711C31.9668 14.4557 31.666 14.1908 31.3223 14.0762ZM34.9531 13.1953C34.9674 13.0521 35.0247 12.9375 35.125 12.8516C35.2253 12.7656 35.3398 12.7155 35.4688 12.7012C35.5977 12.6725 35.7266 12.6868 35.8555 12.7441C35.9844 12.7871 36.0918 12.8587 36.1777 12.959L36.1133 21.5527C36.3854 20.5215 36.6289 19.5046 36.8438 18.502C37.0729 17.485 37.3522 16.5684 37.6816 15.752C38.0111 14.9212 38.4264 14.2409 38.9277 13.7109C39.429 13.1667 40.0951 12.8587 40.9258 12.7871C41.3698 12.7441 41.7565 12.8802 42.0859 13.1953C42.4154 13.4961 42.6947 13.9115 42.9238 14.4414C43.1673 14.9714 43.3678 15.5944 43.5254 16.3105C43.6829 17.0124 43.8047 17.75 43.8906 18.5234C43.9909 19.2826 44.0625 20.0488 44.1055 20.8223C44.1484 21.5957 44.1771 22.3118 44.1914 22.9707C44.2057 23.6296 44.2057 24.2096 44.1914 24.7109C44.1914 25.2122 44.1842 25.5775 44.1699 25.8066C44.0697 26.0501 43.8906 26.2077 43.6328 26.2793C43.3893 26.3652 43.1673 26.265 42.9668 25.9785C42.9525 25.7064 42.9453 25.2409 42.9453 24.582C42.9453 23.9089 42.931 23.1426 42.9023 22.2832C42.888 21.4238 42.8451 20.5286 42.7734 19.5977C42.7161 18.6523 42.6087 17.7858 42.4512 16.998C42.3079 16.196 42.1003 15.5299 41.8281 15C41.5703 14.4557 41.2337 14.1478 40.8184 14.0762C40.4603 14.0189 40.1094 14.2122 39.7656 14.6562C39.4362 15.1003 39.1139 15.6875 38.7988 16.418C38.498 17.1484 38.2116 17.972 37.9395 18.8887C37.6816 19.8053 37.4453 20.7077 37.2305 21.5957C37.0299 22.4837 36.8581 23.3001 36.7148 24.0449C36.5716 24.7897 36.4785 25.3626 36.4355 25.7637C36.3926 25.8783 36.3066 25.9714 36.1777 26.043C36.0488 26.1146 35.9056 26.1504 35.748 26.1504C35.6048 26.1647 35.4544 26.1432 35.2969 26.0859C35.1536 26.0286 35.0462 25.9212 34.9746 25.7637L34.9531 13.1953ZM46.082 15.7949L44.1055 16.4609C43.9479 16.418 43.819 16.3392 43.7188 16.2246C43.6042 16.11 43.5254 15.9883 43.4824 15.8594C43.4395 15.7305 43.4323 15.6087 43.4609 15.4941C43.4753 15.3796 43.5326 15.2936 43.6328 15.2363L46.082 14.3125L46.0391 8.23242C46.082 8.04622 46.1751 7.91016 46.3184 7.82422C46.4616 7.73828 46.6048 7.70247 46.748 7.7168C46.9056 7.7168 47.0488 7.76693 47.1777 7.86719C47.3066 7.95312 47.3926 8.06771 47.4355 8.21094C47.4069 8.65495 47.3854 9.1276 47.3711 9.62891C47.3568 10.1159 47.3424 10.61 47.3281 11.1113C47.3281 11.5983 47.3353 12.0781 47.3496 12.5508C47.3639 13.0091 47.3926 13.4316 47.4355 13.8184L50.7656 12.4648C50.9661 12.4076 51.1237 12.429 51.2383 12.5293C51.3529 12.6152 51.4245 12.737 51.4531 12.8945C51.4961 13.0378 51.4889 13.181 51.4316 13.3242C51.3743 13.4674 51.2741 13.5677 51.1309 13.625L47.4355 15.3008C47.4355 15.444 47.4427 15.7878 47.457 16.332C47.4714 16.862 47.4857 17.4922 47.5 18.2227C47.5143 18.9531 47.5286 19.7337 47.543 20.5645C47.5573 21.3952 47.5645 22.1758 47.5645 22.9062C47.5788 23.6367 47.5859 24.2741 47.5859 24.8184C47.6003 25.3483 47.6074 25.6849 47.6074 25.8281C47.5788 26.3008 47.4427 26.5371 47.1992 26.5371C46.9557 26.5371 46.6908 26.4225 46.4043 26.1934L46.082 15.7949ZM51.3672 12.8086C51.4531 12.7656 51.5534 12.7298 51.668 12.7012C51.7826 12.6725 51.89 12.6582 51.9902 12.6582C52.1048 12.6582 52.2122 12.6797 52.3125 12.7227C52.4128 12.7656 52.4915 12.8444 52.5488 12.959C52.5488 13.89 52.556 14.8997 52.5703 15.9883C52.599 17.0625 52.6276 18.1582 52.6562 19.2754C52.6992 20.3783 52.735 21.4668 52.7637 22.541C52.7923 23.6152 52.821 24.6107 52.8496 25.5273C52.8639 25.7422 52.8066 25.9069 52.6777 26.0215C52.5488 26.1361 52.4056 26.1934 52.248 26.1934C52.1048 26.1934 51.9688 26.1361 51.8398 26.0215C51.7109 25.9212 51.6465 25.7565 51.6465 25.5273L51.3672 12.8086ZM51.1094 8.42578C51.1094 8.23958 51.1738 8.11784 51.3027 8.06055C51.4316 7.98893 51.5749 7.95312 51.7324 7.95312C52.0475 7.95312 52.2409 8.06055 52.3125 8.27539C52.3984 8.47591 52.4414 8.71224 52.4414 8.98438C52.3555 9.15625 52.2409 9.27799 52.0977 9.34961C51.9544 9.42122 51.804 9.43555 51.6465 9.39258C51.5033 9.34961 51.3743 9.24935 51.2598 9.0918C51.1595 8.93424 51.1094 8.71224 51.1094 8.42578ZM53.7949 13.1953C53.8092 13.0521 53.8665 12.9375 53.9668 12.8516C54.0671 12.7656 54.1816 12.7155 54.3105 12.7012C54.4395 12.6725 54.5684 12.6868 54.6973 12.7441C54.8262 12.7871 54.9336 12.8587 55.0195 12.959L54.9551 21.5527C55.2272 20.5215 55.4707 19.5046 55.6855 18.502C55.9147 17.485 56.194 16.5684 56.5234 15.752C56.8529 14.9212 57.2682 14.2409 57.7695 13.7109C58.2708 13.1667 58.9368 12.8587 59.7676 12.7871C60.2116 12.7441 60.5983 12.8802 60.9277 13.1953C61.2572 13.4961 61.5365 13.9115 61.7656 14.4414C62.0091 14.9714 62.2096 15.5944 62.3672 16.3105C62.5247 17.0124 62.6465 17.75 62.7324 18.5234C62.8327 19.2826 62.9043 20.0488 62.9473 20.8223C62.9902 21.5957 63.0189 22.3118 63.0332 22.9707C63.0475 23.6296 63.0475 24.2096 63.0332 24.7109C63.0332 25.2122 63.026 25.5775 63.0117 25.8066C62.9115 26.0501 62.7324 26.2077 62.4746 26.2793C62.2311 26.3652 62.0091 26.265 61.8086 25.9785C61.7943 25.7064 61.7871 25.2409 61.7871 24.582C61.7871 23.9089 61.7728 23.1426 61.7441 22.2832C61.7298 21.4238 61.6868 20.5286 61.6152 19.5977C61.5579 18.6523 61.4505 17.7858 61.293 16.998C61.1497 16.196 60.9421 15.5299 60.6699 15C60.4121 14.4557 60.0755 14.1478 59.6602 14.0762C59.3021 14.0189 58.9512 14.2122 58.6074 14.6562C58.278 15.1003 57.9557 15.6875 57.6406 16.418C57.3398 17.1484 57.0534 17.972 56.7812 18.8887C56.5234 19.8053 56.2871 20.7077 56.0723 21.5957C55.8717 22.4837 55.6999 23.3001 55.5566 24.0449C55.4134 24.7897 55.3203 25.3626 55.2773 25.7637C55.2344 25.8783 55.1484 25.9714 55.0195 26.043C54.8906 26.1146 54.7474 26.1504 54.5898 26.1504C54.4466 26.1647 54.2962 26.1432 54.1387 26.0859C53.9954 26.0286 53.888 25.9212 53.8164 25.7637L53.7949 13.1953ZM70.1016 13.3242C70.1159 13.2383 70.1589 13.1452 70.2305 13.0449C70.3164 12.9303 70.4167 12.8516 70.5312 12.8086C70.6602 12.7656 70.7962 12.7871 70.9395 12.873C71.097 12.9447 71.2546 13.1165 71.4121 13.3887C71.3548 14.4915 71.2832 15.5944 71.1973 16.6973C71.1257 17.7858 71.0898 18.8672 71.0898 19.9414C71.1042 21.0013 71.1758 22.054 71.3047 23.0996C71.4479 24.1452 71.6986 25.1621 72.0566 26.1504C72.071 26.2507 72.0352 26.3366 71.9492 26.4082C71.8633 26.4941 71.7487 26.5514 71.6055 26.5801C71.4622 26.623 71.319 26.6374 71.1758 26.623C71.0326 26.6087 70.918 26.5443 70.832 26.4297L70.0801 22.8418C70.0228 23.028 69.8581 23.3001 69.5859 23.6582C69.3281 24.0163 69.0202 24.3815 68.6621 24.7539C68.3184 25.112 67.9603 25.4342 67.5879 25.7207C67.2155 25.9928 66.8932 26.1361 66.6211 26.1504C65.9479 26.1934 65.418 25.957 65.0312 25.4414C64.6445 24.9258 64.3581 24.2526 64.1719 23.4219C64 22.5768 63.8997 21.6387 63.8711 20.6074C63.8424 19.5762 63.8424 18.5736 63.8711 17.5996C63.8997 16.6257 63.9355 15.7448 63.9785 14.957C64.0215 14.1693 64.0215 13.5892 63.9785 13.2168C64.0215 13.1022 64.0931 13.0163 64.1934 12.959C64.3079 12.9017 64.4297 12.873 64.5586 12.873C64.6875 12.873 64.8092 12.9017 64.9238 12.959C65.0527 13.0163 65.1458 13.1022 65.2031 13.2168C65.2318 13.7038 65.2389 14.3125 65.2246 15.043C65.2103 15.7734 65.196 16.554 65.1816 17.3848C65.1673 18.2012 65.1673 19.0247 65.1816 19.8555C65.2103 20.6862 65.2676 21.4453 65.3535 22.1328C65.4395 22.806 65.5684 23.3717 65.7402 23.8301C65.9264 24.2741 66.1842 24.5247 66.5137 24.582C66.7572 24.582 67.0007 24.5033 67.2441 24.3457C67.4876 24.1882 67.7311 23.9876 67.9746 23.7441C68.2181 23.4863 68.4473 23.207 68.6621 22.9062C68.877 22.5911 69.0632 22.2904 69.2207 22.0039C69.3783 21.7031 69.5072 21.431 69.6074 21.1875C69.7077 20.944 69.765 20.7578 69.7793 20.6289C69.7936 20.457 69.8151 20.1849 69.8438 19.8125C69.8724 19.4258 69.8939 18.9961 69.9082 18.5234C69.9368 18.0365 69.9583 17.5208 69.9727 16.9766C70.0013 16.4323 70.0228 15.9238 70.0371 15.4512C70.0658 14.9642 70.0801 14.5345 70.0801 14.1621C70.0944 13.7754 70.1016 13.4961 70.1016 13.3242ZM80.0703 25.7852C79.8698 25.4844 79.7409 25.0905 79.6836 24.6035C79.6406 24.1165 79.612 23.6081 79.5977 23.0781C79.5977 22.5339 79.5977 22.0039 79.5977 21.4883C79.612 20.9583 79.5762 20.5072 79.4902 20.1348C78.8171 21.61 78.1797 22.763 77.5781 23.5938C76.9909 24.4102 76.4466 24.9974 75.9453 25.3555C75.4583 25.6992 75.0143 25.8568 74.6133 25.8281C74.2122 25.7852 73.8685 25.6419 73.582 25.3984C73.3099 25.1406 73.0951 24.8327 72.9375 24.4746C72.7799 24.1022 72.694 23.7513 72.6797 23.4219C72.5794 22.8776 72.5723 22.2259 72.6582 21.4668C72.7585 20.6934 72.9232 19.8984 73.1523 19.082C73.3958 18.2656 73.6966 17.4707 74.0547 16.6973C74.4271 15.9095 74.8424 15.2292 75.3008 14.6562C75.7734 14.0833 76.2747 13.6608 76.8047 13.3887C77.3346 13.1022 77.8861 13.0521 78.459 13.2383C78.7454 13.2096 78.9818 13.224 79.168 13.2812C79.3685 13.3242 79.5332 13.4245 79.6621 13.582C79.791 13.7396 79.8841 13.9616 79.9414 14.248C79.9987 14.5202 80.0417 14.8711 80.0703 15.3008C80.0417 16.6901 80.0775 17.8717 80.1777 18.8457C80.2923 19.8197 80.4212 20.679 80.5645 21.4238C80.7077 22.1686 80.8438 22.8418 80.9727 23.4434C81.1159 24.0449 81.2018 24.668 81.2305 25.3125C81.2305 25.5417 81.1732 25.7207 81.0586 25.8496C80.944 25.9642 80.8151 26.0358 80.6719 26.0645C80.5286 26.1074 80.3926 26.1003 80.2637 26.043C80.1491 25.9857 80.0846 25.8997 80.0703 25.7852ZM78.8242 14.9355C78.4805 14.4772 78.1081 14.2839 77.707 14.3555C77.306 14.4271 76.9049 14.6777 76.5039 15.1074C76.1172 15.5228 75.7448 16.0742 75.3867 16.7617C75.0286 17.4349 74.7207 18.1582 74.4629 18.9316C74.2051 19.7051 74.0117 20.4785 73.8828 21.252C73.7682 22.0111 73.7467 22.6842 73.8184 23.2715C74.0189 23.916 74.2624 24.3027 74.5488 24.4316C74.8353 24.5605 75.1432 24.5176 75.4727 24.3027C75.8021 24.0736 76.1387 23.7155 76.4824 23.2285C76.8262 22.7415 77.1556 22.2188 77.4707 21.6602C77.7858 21.0872 78.0651 20.5215 78.3086 19.9629C78.5664 19.39 78.7741 18.9102 78.9316 18.5234L78.8242 14.9355ZM82.3262 25.5918C82.2832 23.6152 82.2474 21.9395 82.2188 20.5645C82.1901 19.1895 82.1686 18.0508 82.1543 17.1484C82.14 16.2461 82.1257 15.5443 82.1113 15.043C82.1113 14.5273 82.1042 14.1478 82.0898 13.9043C82.0898 13.6608 82.0898 13.5176 82.0898 13.4746C82.0898 13.4173 82.0898 13.3815 82.0898 13.3672C82.1042 13.2383 82.1686 13.1309 82.2832 13.0449C82.3978 12.959 82.5195 12.9089 82.6484 12.8945C82.7917 12.8659 82.9277 12.8802 83.0566 12.9375C83.1855 12.9948 83.2786 13.0879 83.3359 13.2168L83.4004 18.1582C83.6152 17.1699 83.959 16.3464 84.4316 15.6875C84.9186 15.0286 85.4629 14.513 86.0645 14.1406C86.666 13.7539 87.2891 13.5033 87.9336 13.3887C88.5924 13.2741 89.2012 13.2669 89.7598 13.3672C89.946 13.4102 90.082 13.4889 90.168 13.6035C90.2682 13.7181 90.3184 13.847 90.3184 13.9902C90.3327 14.1191 90.2969 14.248 90.2109 14.377C90.1393 14.4915 90.0391 14.5775 89.9102 14.6348C89.2656 14.5918 88.6569 14.6491 88.084 14.8066C87.5254 14.9499 87.0098 15.1719 86.5371 15.4727C86.0788 15.7591 85.6706 16.1029 85.3125 16.5039C84.9688 16.9049 84.6966 17.3275 84.4961 17.7715C84.1953 18.416 83.9876 19.0964 83.873 19.8125C83.7728 20.5143 83.7083 21.2161 83.6797 21.918C83.6654 22.6198 83.6654 23.2858 83.6797 23.916C83.7083 24.5462 83.7155 25.0977 83.7012 25.5703C83.6868 25.7279 83.6152 25.8496 83.4863 25.9355C83.3717 26.0072 83.2357 26.043 83.0781 26.043C82.9349 26.0573 82.7845 26.0286 82.627 25.957C82.4837 25.8711 82.3835 25.7493 82.3262 25.5918Z" fill="#404040"/>
</svg>
