<svg width="78" height="30" viewBox="0 0 78 30" fill="none" xmlns="http://www.w3.org/2000/svg">
<rect width="78" height="30" rx="15" fill="white"/>
<path d="M15.58 21V8.4H23.248V9.66H16.84V13.62H22.141V14.88H16.84V19.74H23.248V21H15.58ZM33.0784 15.429V21H31.8184V15.681C31.8184 15.189 31.6984 14.742 31.4584 14.34C31.2184 13.938 30.8974 13.617 30.4954 13.377C30.0934 13.137 29.6464 13.017 29.1544 13.017C28.6684 13.017 28.2214 13.137 27.8134 13.377C27.4114 13.617 27.0904 13.938 26.8504 14.34C26.6104 14.742 26.4904 15.189 26.4904 15.681V21H25.2304V12H26.4904V13.242C26.8084 12.786 27.2224 12.423 27.7324 12.153C28.2424 11.883 28.7974 11.748 29.3974 11.748C30.0754 11.748 30.6934 11.913 31.2514 12.243C31.8094 12.573 32.2534 13.017 32.5834 13.575C32.9134 14.133 33.0784 14.751 33.0784 15.429ZM39.4798 13.26H37.3288L37.3198 21H36.0598L36.0688 13.26H34.4398V12H36.0688L36.0598 9.174H37.3198L37.3288 12H39.4798V13.26ZM41.0859 21V12H42.3459V13.242C42.6639 12.786 43.0779 12.423 43.5879 12.153C44.0979 11.883 44.6529 11.748 45.2529 11.748C45.6009 11.748 45.9369 11.793 46.2609 11.883L45.7479 13.134C45.4959 13.056 45.2499 13.017 45.0099 13.017C44.5239 13.017 44.0769 13.137 43.6689 13.377C43.2669 13.617 42.9459 13.938 42.7059 14.34C42.4659 14.742 42.3459 15.189 42.3459 15.681V21H41.0859ZM54.3198 12H55.5798V21H54.3198L54.2748 19.326C53.9808 19.896 53.5698 20.358 53.0418 20.712C52.5138 21.06 51.8838 21.234 51.1518 21.234C50.4918 21.234 49.8738 21.111 49.2978 20.865C48.7218 20.613 48.2148 20.268 47.7768 19.83C47.3388 19.392 46.9968 18.885 46.7508 18.309C46.5048 17.733 46.3818 17.115 46.3818 16.455C46.3818 15.807 46.5018 15.198 46.7418 14.628C46.9878 14.058 47.3238 13.557 47.7498 13.125C48.1818 12.693 48.6798 12.357 49.2438 12.117C49.8138 11.871 50.4228 11.748 51.0708 11.748C51.8208 11.748 52.4748 11.928 53.0328 12.288C53.5908 12.642 54.0348 13.107 54.3648 13.683L54.3198 12ZM51.1248 20.01C51.7668 20.01 52.3188 19.854 52.7808 19.542C53.2428 19.224 53.5968 18.798 53.8428 18.264C54.0948 17.73 54.2208 17.142 54.2208 16.5C54.2208 15.84 54.0948 15.246 53.8428 14.718C53.5908 14.184 53.2338 13.761 52.7718 13.449C52.3098 13.137 51.7608 12.981 51.1248 12.981C50.4888 12.981 49.9068 13.14 49.3788 13.458C48.8568 13.77 48.4398 14.193 48.1278 14.727C47.8218 15.261 47.6688 15.852 47.6688 16.5C47.6688 17.154 47.8278 17.748 48.1458 18.282C48.4638 18.81 48.8838 19.23 49.4058 19.542C49.9338 19.854 50.5068 20.01 51.1248 20.01ZM57.3808 21V12H58.6408V13.242C58.9588 12.786 59.3728 12.423 59.8828 12.153C60.3928 11.883 60.9478 11.748 61.5478 11.748C61.8958 11.748 62.2318 11.793 62.5558 11.883L62.0428 13.134C61.7908 13.056 61.5448 13.017 61.3048 13.017C60.8188 13.017 60.3718 13.137 59.9638 13.377C59.5618 13.617 59.2408 13.938 59.0008 14.34C58.7608 14.742 58.6408 15.189 58.6408 15.681V21H57.3808Z" fill="#404040"/>
</svg>
