<svg width="100" height="40" viewBox="0 0 100 40" fill="none" xmlns="http://www.w3.org/2000/svg">
<path d="M3 16L87 16" stroke="#F4F4F4" stroke-width="3"/>
<circle cx="11.5" cy="16" r="11.5" fill="#D9D9D9"/>
<g filter="url(#filter0_d_126_656)">
<circle cx="50" cy="16" r="14" fill="#F4F4F4"/>
<circle cx="50" cy="16" r="13.75" stroke="black" stroke-width="0.5"/>
</g>
<circle cx="88.5" cy="16" r="11.5" fill="#F4F4F4"/>
<path d="M6 18L9 22L16.5 10" stroke="black" stroke-width="2" stroke-linecap="round"/>
<path d="M45.8 23V21.76C46.3467 21.2533 46.9467 20.7 47.6 20.1C48.2533 19.4933 48.9 18.87 49.54 18.23C50.1867 17.5833 50.7767 16.9467 51.31 16.32C51.8433 15.6867 52.27 15.09 52.59 14.53C52.9167 13.9633 53.08 13.4633 53.08 13.03C53.08 12.5033 52.95 12.0233 52.69 11.59C52.4367 11.15 52.0933 10.8 51.66 10.54C51.2333 10.2733 50.7567 10.14 50.23 10.14C49.7033 10.14 49.22 10.2733 48.78 10.54C48.3467 10.8 48 11.15 47.74 11.59C47.48 12.0233 47.35 12.5033 47.35 13.03H45.95C45.95 12.23 46.1433 11.5067 46.53 10.86C46.9233 10.2133 47.4433 9.7 48.09 9.32C48.7367 8.93333 49.45 8.74 50.23 8.74C51.01 8.74 51.72 8.93333 52.36 9.32C53.0067 9.70667 53.52 10.2233 53.9 10.87C54.2867 11.5167 54.48 12.2367 54.48 13.03C54.48 13.5033 54.3533 14.0233 54.1 14.59C53.8533 15.15 53.5167 15.7333 53.09 16.34C52.6633 16.94 52.1833 17.5467 51.65 18.16C51.1167 18.7733 50.56 19.3733 49.98 19.96C49.4 20.54 48.8367 21.0867 48.29 21.6H54.69V23H45.8Z" fill="black"/>
<path d="M88.91 23.26C88.0567 23.26 87.3067 23.0733 86.66 22.7C86.0133 22.32 85.5067 21.8133 85.14 21.18C84.78 20.5467 84.6 19.8467 84.6 19.08H86C86 19.5867 86.1167 20.0533 86.35 20.48C86.59 20.9 86.9267 21.2367 87.36 21.49C87.7933 21.7367 88.31 21.86 88.91 21.86C89.4167 21.86 89.89 21.7367 90.33 21.49C90.7767 21.2367 91.1367 20.9 91.41 20.48C91.69 20.0533 91.83 19.5867 91.83 19.08C91.83 18.4467 91.67 17.92 91.35 17.5C91.03 17.0733 90.59 16.7567 90.03 16.55C89.47 16.3367 88.83 16.23 88.11 16.23V15.07C89.1033 15.07 89.9 14.86 90.5 14.44C91.1067 14.0133 91.41 13.39 91.41 12.57C91.41 12.1233 91.2867 11.7167 91.04 11.35C90.8 10.9833 90.4833 10.69 90.09 10.47C89.7033 10.2433 89.2867 10.13 88.84 10.13C88.3933 10.13 87.9633 10.2433 87.55 10.47C87.1433 10.69 86.81 10.9833 86.55 11.35C86.2967 11.7167 86.17 12.1233 86.17 12.57H84.77C84.77 12.0433 84.88 11.55 85.1 11.09C85.32 10.6233 85.62 10.2133 86 9.86C86.38 9.50667 86.8133 9.23 87.3 9.03C87.7867 8.83 88.2967 8.73 88.83 8.73C89.53 8.73 90.18 8.90333 90.78 9.25C91.3867 9.59667 91.8767 10.06 92.25 10.64C92.6233 11.22 92.81 11.8633 92.81 12.57C92.81 13.2567 92.6333 13.8767 92.28 14.43C91.9267 14.9833 91.45 15.3733 90.85 15.6C91.37 15.7733 91.8067 16.0367 92.16 16.39C92.5133 16.7367 92.78 17.14 92.96 17.6C93.14 18.06 93.23 18.5533 93.23 19.08C93.23 19.8467 93.03 20.5467 92.63 21.18C92.23 21.8133 91.7 22.32 91.04 22.7C90.3867 23.0733 89.6767 23.26 88.91 23.26Z" fill="black"/>
<defs>
<filter id="filter0_d_126_656" x="30" y="0" width="40" height="40" filterUnits="userSpaceOnUse" color-interpolation-filters="sRGB">
<feFlood flood-opacity="0" result="BackgroundImageFix"/>
<feColorMatrix in="SourceAlpha" type="matrix" values="0 0 0 0 0 0 0 0 0 0 0 0 0 0 0 0 0 0 127 0" result="hardAlpha"/>
<feOffset dy="4"/>
<feGaussianBlur stdDeviation="3"/>
<feComposite in2="hardAlpha" operator="out"/>
<feColorMatrix type="matrix" values="0 0 0 0 0 0 0 0 0 0 0 0 0 0 0 0 0 0 0.25 0"/>
<feBlend mode="normal" in2="BackgroundImageFix" result="effect1_dropShadow_126_656"/>
<feBlend mode="normal" in="SourceGraphic" in2="effect1_dropShadow_126_656" result="shape"/>
</filter>
</defs>
</svg>
