<svg width="39" height="39" viewBox="0 0 39 39" fill="none" xmlns="http://www.w3.org/2000/svg">
<path d="M26 12.6587L26 26.3412C26.0008 26.8814 25.8486 27.4108 25.561 27.868C25.2734 28.3253 24.8622 28.6917 24.375 28.925C23.7969 29.198 23.1538 29.3032 22.5188 29.2285C21.8839 29.1538 21.2827 28.9023 20.7838 28.5025L12.4963 21.6612C12.1865 21.3928 11.9381 21.0608 11.7678 20.6879C11.5975 20.3151 11.5094 19.9099 11.5094 19.5C11.5094 19.0901 11.5975 18.6849 11.7678 18.312C11.9381 17.9392 12.1865 17.6072 12.4963 17.3387L20.7838 10.4975C21.2827 10.0977 21.8839 9.84617 22.5188 9.77147C23.1538 9.69677 23.7969 9.80194 24.375 10.075C24.8622 10.3083 25.2734 10.6747 25.561 11.132C25.8486 11.5892 26.0008 12.1186 26 12.6587ZM22.75 26L22.75 13.1625L14.9175 19.5L22.75 26Z" fill="#E8E8E8"/>
</svg>
