<svg width="36" height="35" viewBox="0 0 36 35" fill="none" xmlns="http://www.w3.org/2000/svg">
<path d="M31.125 10.4446C31.125 8.92353 31.125 8.16228 30.7123 7.58915C30.2996 7.01603 29.5777 6.7754 28.134 6.29415L26.435 5.72832C24.4415 5.06332 23.4454 4.73082 22.4406 4.86644C21.4373 5.00061 20.5623 5.58249 18.8137 6.74769L16.7983 8.09228C15.4333 9.00228 14.7508 9.45728 13.9838 9.63811C13.703 9.70515 13.4162 9.74423 13.1277 9.75478C12.3402 9.78103 11.5629 9.52144 10.0069 9.00228C7.96813 8.32269 6.94875 7.9829 6.17292 8.32853C5.89798 8.45085 5.65124 8.62858 5.44812 8.85061C4.875 9.47915 4.875 10.5525 4.875 12.7021V18.6302M31.125 16.0417V22.2979C31.125 24.4475 31.125 25.5223 30.5519 26.1479C30.349 26.371 30.1023 26.5497 29.8271 26.6729C29.0513 27.0171 28.0319 26.6773 25.9931 25.9977C24.4371 25.4785 23.6598 25.2189 22.8723 25.2467C22.5834 25.2562 22.2962 25.2943 22.0148 25.3604C21.2492 25.5427 20.5667 25.9977 19.2017 26.9062L17.1863 28.2508C15.4363 29.4175 14.5627 30.0008 13.5594 30.1335C12.556 30.2692 11.5585 29.9367 9.565 29.2717L7.86604 28.7058C6.42229 28.2246 5.70042 27.9839 5.28771 27.4108C4.89687 26.8683 4.87646 26.1567 4.875 24.7917M22.375 5.10415V10.2083M22.375 24.7917V16.0417M13.625 29.8958V24.7917M13.625 10.2083V18.9583" stroke="#E8E8E8" stroke-width="1.875" stroke-linecap="round"/>
</svg>
