<svg width="36" height="35" viewBox="0 0 36 35" fill="none" xmlns="http://www.w3.org/2000/svg">
<path d="M13.625 15.3125C13.625 15.0224 13.7403 14.7442 13.9454 14.5391C14.1505 14.334 14.4287 14.2188 14.7188 14.2188H21.2813C21.5714 14.2188 21.8496 14.334 22.0547 14.5391C22.2598 14.7442 22.375 15.0224 22.375 15.3125C22.375 15.6026 22.2598 15.8808 22.0547 16.0859C21.8496 16.291 21.5714 16.4063 21.2813 16.4063H14.7188C14.4287 16.4063 14.1505 16.291 13.9454 16.0859C13.7403 15.8808 13.625 15.6026 13.625 15.3125ZM14.7188 18.5938C14.4287 18.5938 14.1505 18.709 13.9454 18.9141C13.7403 19.1192 13.625 19.3974 13.625 19.6875C13.625 19.9776 13.7403 20.2558 13.9454 20.4609C14.1505 20.666 14.4287 20.7813 14.7188 20.7813H19.0938C19.3839 20.7813 19.6621 20.666 19.8672 20.4609C20.0723 20.2558 20.1875 19.9776 20.1875 19.6875C20.1875 19.3974 20.0723 19.1192 19.8672 18.9141C19.6621 18.709 19.3839 18.5938 19.0938 18.5938H14.7188ZM4.87502 17.5C4.87558 14.6104 5.8297 11.8018 7.58938 9.50978C9.34906 7.21779 11.8159 5.57055 14.6073 4.82362C17.3987 4.07668 20.3585 4.27179 23.0277 5.37868C25.6969 6.48557 27.9262 8.44236 29.3698 10.9455C30.8134 13.4487 31.3905 16.3582 31.0118 19.2229C30.633 22.0876 29.3195 24.7472 27.275 26.7891C25.2305 28.8311 22.5692 30.1413 19.7041 30.5164C16.839 30.8916 13.9301 30.3108 11.4288 28.8641L6.3144 30.5703C6.12545 30.6334 5.92285 30.6437 5.72849 30.6001C5.53412 30.5564 5.35535 30.4606 5.21149 30.3228C5.06762 30.185 4.96412 30.0105 4.91215 29.8182C4.86018 29.6259 4.86171 29.4231 4.91659 29.2316L6.47409 23.7825C5.42193 21.8559 4.872 19.6952 4.87502 17.5ZM18 6.5625C16.0689 6.56238 14.1721 7.07357 12.5025 8.04411C10.833 9.01465 9.45011 10.4099 8.49457 12.0881C7.53903 13.7663 7.04486 15.6676 7.06228 17.5987C7.0797 19.5298 7.60811 21.4218 8.59377 23.0825C8.66961 23.2108 8.71843 23.3532 8.73724 23.5011C8.75605 23.6489 8.74445 23.799 8.70315 23.9422L7.58971 27.8359L11.2166 26.6284C11.3706 26.577 11.5342 26.5606 11.6953 26.5802C11.8565 26.5999 12.0113 26.6552 12.1485 26.7422C13.5819 27.6493 15.2066 28.2106 16.8943 28.3817C18.582 28.5528 20.2863 28.329 21.8726 27.728C23.4589 27.127 24.8837 26.1652 26.0343 24.9188C27.1849 23.6723 28.0298 22.1753 28.5022 20.5461C28.9747 18.9169 29.0617 17.2001 28.7564 15.5315C28.4511 13.8628 27.7618 12.2881 26.7431 10.9317C25.7244 9.5753 24.4042 8.47445 22.8868 7.71615C21.3694 6.95786 19.6964 6.5629 18 6.5625Z" fill="#E8E8E8"/>
</svg>
