<svg width="36" height="35" viewBox="0 0 36 35" fill="none" xmlns="http://www.w3.org/2000/svg">
<path d="M34.1327 16.9531C34.1309 15.5269 33.717 14.1316 32.9408 12.9351C32.1647 11.7386 31.0593 10.7919 29.7577 10.2088V9.84374C29.7563 8.45601 29.296 7.10769 28.4484 6.00886C27.6008 4.91002 26.4136 4.12239 25.0717 3.76866C23.7298 3.41492 22.3086 3.51496 21.0295 4.05319C19.7504 4.59141 18.6852 5.5376 17.9999 6.74433C17.3146 5.5376 16.2494 4.59141 14.9703 4.05319C13.6912 3.51496 12.27 3.41492 10.9281 3.76866C9.58619 4.12239 8.39896 4.91002 7.55138 6.00886C6.7038 7.10769 6.24347 8.45601 6.24209 9.84374V10.2088C4.9395 10.7899 3.83314 11.7359 3.05675 12.9324C2.28036 14.1289 1.86719 15.5247 1.86719 16.9511C1.86719 18.3774 2.28036 19.7732 3.05675 20.9697C3.83314 22.1662 4.9395 23.1122 6.24209 23.6934V24.0625C6.24347 25.4502 6.7038 26.7985 7.55138 27.8974C8.39896 28.9962 9.58619 29.7839 10.9281 30.1376C12.27 30.4913 13.6912 30.3913 14.9703 29.8531C16.2494 29.3148 17.3146 28.3686 17.9999 27.1619C18.6852 28.3686 19.7504 29.3148 21.0295 29.8531C22.3086 30.3913 23.7298 30.4913 25.0717 30.1376C26.4136 29.7839 27.6008 28.9962 28.4484 27.8974C29.296 26.7985 29.7563 25.4502 29.7577 24.0625V23.6934C31.0593 23.1114 32.1648 22.1655 32.941 20.9696C33.7173 19.7737 34.1311 18.3789 34.1327 16.9531ZM12.5312 28.7109C11.323 28.7115 10.1621 28.2417 9.29441 27.4011C8.42671 26.5604 7.92038 25.415 7.88272 24.2074C8.33343 24.2929 8.79116 24.3359 9.2499 24.3359H10.3437C10.5612 24.3359 10.7699 24.2495 10.9237 24.0957C11.0775 23.9418 11.164 23.7332 11.164 23.5156C11.164 23.2981 11.0775 23.0894 10.9237 22.9356C10.7699 22.7817 10.5612 22.6953 10.3437 22.6953H9.2499C7.89452 22.6964 6.58244 22.218 5.54583 21.3448C4.50921 20.4716 3.81489 19.2599 3.58573 17.924C3.35656 16.5881 3.60733 15.2143 4.29364 14.0455C4.97996 12.8767 6.05759 11.9884 7.33584 11.5377C7.49585 11.4811 7.63437 11.3763 7.73231 11.2377C7.83026 11.0991 7.88281 10.9336 7.88272 10.7639V9.84374C7.88272 8.6109 8.37246 7.42855 9.24421 6.5568C10.116 5.68505 11.2983 5.19531 12.5312 5.19531C13.764 5.19531 14.9463 5.68505 15.8181 6.5568C16.6898 7.42855 17.1796 8.6109 17.1796 9.84374V19.831C16.5912 19.1827 15.8737 18.6647 15.0731 18.3104C14.2725 17.956 13.4067 17.7731 12.5312 17.7734C12.3136 17.7734 12.1049 17.8599 11.9511 18.0137C11.7973 18.1675 11.7108 18.3762 11.7108 18.5937C11.7108 18.8113 11.7973 19.02 11.9511 19.1738C12.1049 19.3276 12.3136 19.4141 12.5312 19.4141C13.764 19.4141 14.9463 19.9038 15.8181 20.7756C16.6898 21.6473 17.1796 22.8297 17.1796 24.0625C17.1796 25.2953 16.6898 26.4777 15.8181 27.3494C14.9463 28.2212 13.764 28.7109 12.5312 28.7109ZM26.7499 22.6953H25.6562C25.4386 22.6953 25.2299 22.7817 25.0761 22.9356C24.9223 23.0894 24.8358 23.2981 24.8358 23.5156C24.8358 23.7332 24.9223 23.9418 25.0761 24.0957C25.2299 24.2495 25.4386 24.3359 25.6562 24.3359H26.7499C27.2086 24.3359 27.6664 24.2929 28.1171 24.2074C28.0886 25.1201 27.792 26.0041 27.2642 26.7493C26.7364 27.4944 26.0009 28.0676 25.1494 28.3973C24.2979 28.727 23.3682 28.7987 22.4762 28.6033C21.5842 28.4079 20.7696 27.9541 20.1339 27.2986C19.4982 26.6431 19.0697 25.8149 18.9018 24.9174C18.7338 24.0198 18.834 23.0927 19.1897 22.2518C19.5453 21.4108 20.1408 20.6932 20.9018 20.1885C21.6628 19.6839 22.5555 19.4145 23.4687 19.4141C23.6862 19.4141 23.8949 19.3276 24.0487 19.1738C24.2025 19.02 24.289 18.8113 24.289 18.5937C24.289 18.3762 24.2025 18.1675 24.0487 18.0137C23.8949 17.8599 23.6862 17.7734 23.4687 17.7734C22.5932 17.7731 21.7273 17.956 20.9267 18.3104C20.1261 18.6647 19.4086 19.1827 18.8202 19.831V9.84374C18.8202 8.6109 19.31 7.42855 20.1817 6.5568C21.0535 5.68505 22.2358 5.19531 23.4687 5.19531C24.7015 5.19531 25.8838 5.68505 26.7556 6.5568C27.6273 7.42855 28.1171 8.6109 28.1171 9.84374V10.7639C28.117 10.9336 28.1696 11.0991 28.2675 11.2377C28.3654 11.3763 28.504 11.4811 28.664 11.5377C29.9422 11.9884 31.0198 12.8767 31.7062 14.0455C32.3925 15.2143 32.6432 16.5881 32.4141 17.924C32.1849 19.2599 31.4906 20.4716 30.454 21.3448C29.4174 22.218 28.1053 22.6964 26.7499 22.6953ZM28.664 15.3125C28.664 15.5301 28.5775 15.7387 28.4237 15.8925C28.2699 16.0464 28.0612 16.1328 27.8437 16.1328H27.2968C26.0639 16.1328 24.8816 15.6431 24.0098 14.7713C23.1381 13.8996 22.6483 12.7172 22.6483 11.4844V10.9375C22.6483 10.7199 22.7348 10.5113 22.8886 10.3574C23.0424 10.2036 23.2511 10.1172 23.4687 10.1172C23.6862 10.1172 23.8949 10.2036 24.0487 10.3574C24.2025 10.5113 24.289 10.7199 24.289 10.9375V11.4844C24.289 12.2821 24.6059 13.0471 25.1699 13.6112C25.734 14.1753 26.4991 14.4922 27.2968 14.4922H27.8437C28.0612 14.4922 28.2699 14.5786 28.4237 14.7324C28.5775 14.8863 28.664 15.0949 28.664 15.3125ZM8.70303 16.1328H8.15615C7.93859 16.1328 7.72994 16.0464 7.57611 15.8925C7.42227 15.7387 7.33584 15.5301 7.33584 15.3125C7.33584 15.0949 7.42227 14.8863 7.57611 14.7324C7.72994 14.5786 7.93859 14.4922 8.15615 14.4922H8.70303C9.50075 14.4922 10.2658 14.1753 10.8299 13.6112C11.3939 13.0471 11.7108 12.2821 11.7108 11.4844V10.9375C11.7108 10.7199 11.7973 10.5113 11.9511 10.3574C12.1049 10.2036 12.3136 10.1172 12.5312 10.1172C12.7487 10.1172 12.9574 10.2036 13.1112 10.3574C13.265 10.5113 13.3515 10.7199 13.3515 10.9375V11.4844C13.3515 12.7172 12.8617 13.8996 11.99 14.7713C11.1182 15.6431 9.93587 16.1328 8.70303 16.1328Z" fill="#E8E8E8"/>
</svg>
