<svg width="31" height="33" viewBox="0 0 31 33" fill="none" xmlns="http://www.w3.org/2000/svg">
<path d="M28.1218 17.4435L28.8757 14.626C29.7566 11.3375 30.1984 9.69394 29.8674 8.27061C29.605 7.14696 29.0153 6.12635 28.1728 5.3379C27.1068 4.33894 25.4618 3.89853 22.1732 3.01769C18.8847 2.1354 17.2397 1.69499 15.8178 2.02603C14.6942 2.2884 13.6736 2.87813 12.8851 3.72061C12.0291 4.63353 11.5828 5.97082 10.9193 8.4004L10.5634 9.72019L9.80947 12.5377C8.92718 15.8262 8.48676 17.4698 8.81781 18.8931C9.08018 20.0168 9.6699 21.0374 10.5124 21.8258C11.5784 22.8248 13.2234 23.2652 16.512 24.1475C19.4753 24.9408 21.1043 25.3769 22.4386 25.2121C22.5845 25.1946 22.7274 25.1683 22.8674 25.1362C23.9907 24.8747 25.0113 24.286 25.8001 23.4446C26.7991 22.3771 27.2395 20.7321 28.1218 17.4435Z" stroke="#E8E8E8" stroke-width="1.875"/>
<path d="M22.4386 25.2121C22.1337 26.1459 21.598 26.9876 20.8811 27.6592C19.815 28.6581 18.17 29.0985 14.8815 29.9794C11.5929 30.8602 9.94793 31.3021 8.52606 30.9696C7.40258 30.7076 6.38199 30.1184 5.59335 29.2765C4.59439 28.2104 4.15252 26.5654 3.27168 23.2769L2.51772 20.4594C1.63543 17.1708 1.19502 15.5258 1.52606 14.104C1.78843 12.9803 2.37816 11.9597 3.22064 11.1712C4.28668 10.1723 5.93168 9.73187 9.22022 8.84958C9.84147 8.68333 10.4058 8.53166 10.9192 8.39896" stroke="#E8E8E8" stroke-width="1.875"/>
<path d="M15.6749 13.5833L22.7186 15.4704M14.5417 17.8096L18.768 18.9412" stroke="#E8E8E8" stroke-width="1.875" stroke-linecap="round"/>
</svg>
