<svg width="36" height="35" viewBox="0 0 36 35" fill="none" xmlns="http://www.w3.org/2000/svg">
<path d="M16.4972 2.76063C16.9033 2.37664 17.4411 2.16269 18 2.16269C18.5589 2.16269 19.0967 2.37664 19.5028 2.76063L30.0991 12.7772C30.7553 13.3963 31.125 14.2603 31.125 15.1616V27.3459C31.125 28.2162 30.7793 29.0508 30.1639 29.6661C29.5486 30.2815 28.714 30.6272 27.8438 30.6272H23.4688C23.0377 30.6272 22.6108 30.5422 22.2126 30.3772C21.8143 30.2122 21.4525 29.9703 21.1478 29.6654C20.8431 29.3604 20.6014 28.9985 20.4366 28.6001C20.2719 28.2018 20.1872 27.7748 20.1875 27.3438V21.875C20.1875 21.5849 20.0723 21.3067 19.8671 21.1016C19.662 20.8965 19.3838 20.7813 19.0938 20.7813H16.9062C16.6162 20.7813 16.338 20.8965 16.1329 21.1016C15.9277 21.3067 15.8125 21.5849 15.8125 21.875V27.3438C15.8125 28.214 15.4668 29.0486 14.8514 29.6639C14.2361 30.2793 13.4015 30.625 12.5312 30.625H8.15625C7.28601 30.625 6.45141 30.2793 5.83606 29.6639C5.2207 29.0486 4.875 28.214 4.875 27.3438V15.1594C4.875 14.2581 5.24688 13.3941 5.90313 12.775L16.4972 2.76063ZM18 4.34875L7.40375 14.3675C7.29618 14.4695 7.21046 14.5923 7.1518 14.7284C7.09313 14.8645 7.06275 15.0111 7.0625 15.1594V27.3438C7.0625 27.6338 7.17773 27.912 7.38285 28.1172C7.58797 28.3223 7.86617 28.4375 8.15625 28.4375H12.5312C12.8213 28.4375 13.0995 28.3223 13.3046 28.1172C13.5098 27.912 13.625 27.6338 13.625 27.3438V21.875C13.625 21.0048 13.9707 20.1702 14.5861 19.5548C15.2014 18.9395 16.036 18.5938 16.9062 18.5938H19.0938C19.964 18.5938 20.7986 18.9395 21.4139 19.5548C22.0293 20.1702 22.375 21.0048 22.375 21.875V27.3438C22.375 27.6338 22.4902 27.912 22.6954 28.1172C22.9005 28.3223 23.1787 28.4375 23.4688 28.4375H27.8438C28.1338 28.4375 28.412 28.3223 28.6171 28.1172C28.8223 27.912 28.9375 27.6338 28.9375 27.3438V15.1594C28.9375 15.0108 28.9073 14.8637 28.8486 14.7272C28.79 14.5907 28.7041 14.4675 28.5963 14.3653L18 4.34875Z" fill="#E8E8E8"/>
</svg>
