<svg width="36" height="35" viewBox="0 0 36 35" fill="none" xmlns="http://www.w3.org/2000/svg">
<path d="M4.51778 21.4608L5.27174 24.2783C6.15257 27.5669 6.59445 29.2119 7.5934 30.2779C8.38185 31.1191 9.40187 31.7078 10.5247 31.9696C11.948 32.3021 13.593 31.8617 16.883 30.9808C20.1701 30.1 21.8151 29.6596 22.8811 28.6606C22.9686 28.5775 23.0561 28.4915 23.1378 28.404C22.6411 28.3588 22.1475 28.2858 21.659 28.1852C20.644 27.984 19.438 27.6602 18.0117 27.2781L17.8557 27.2358L17.8192 27.2271C16.2676 26.81 14.9711 26.4629 13.9357 26.0896C12.8463 25.6958 11.8576 25.2102 11.0161 24.4227C9.85866 23.3383 9.0487 21.9351 8.68861 20.3904C8.42611 19.269 8.50195 18.1694 8.70611 17.0304C8.90153 15.9381 9.25153 14.6286 9.67153 13.0608L10.4517 10.1529L10.478 10.0508C7.67799 10.8048 6.20361 11.251 5.2207 12.1713C4.3785 12.9603 3.78927 13.9814 3.52757 15.1054C3.19507 16.5273 3.63549 18.1723 4.51778 21.4608Z" fill="#E8E8E8"/>
<path fill-rule="evenodd" clip-rule="evenodd" d="M30.877 15.6261L30.1216 18.4436C29.2393 21.7321 28.7989 23.3771 27.7999 24.4431C27.0117 25.2848 25.9916 25.874 24.8687 26.1363C24.7272 26.1698 24.5843 26.1946 24.4385 26.2121C23.1041 26.3769 21.4751 25.9408 18.5118 25.1475C15.2232 24.2652 13.5782 23.8248 12.5122 22.8258C11.6703 22.0372 11.081 21.0166 10.8191 19.8931C10.4866 18.4698 10.927 16.8263 11.8093 13.5377L12.5632 10.7202L12.9191 9.40043C13.5826 6.97084 14.0289 5.63355 14.8849 4.71918C15.6734 3.87801 16.6934 3.28934 17.8162 3.02751C19.2395 2.69501 20.8845 3.13543 24.1745 4.01772C27.4616 4.89855 29.1066 5.33897 30.1726 6.33647C31.0148 7.12551 31.604 8.14663 31.8657 9.27064C32.1982 10.694 31.7578 12.3375 30.877 15.6261ZM16.616 14.299C16.6532 14.1602 16.7174 14.0301 16.8049 13.9162C16.8924 13.8022 17.0015 13.7066 17.1259 13.6349C17.2504 13.5631 17.3878 13.5165 17.5302 13.4979C17.6727 13.4792 17.8174 13.4888 17.9562 13.5261L24.9999 15.4146C25.1423 15.4484 25.2765 15.5104 25.3945 15.5969C25.5125 15.6835 25.612 15.7929 25.6869 15.9186C25.7619 16.0443 25.8109 16.1838 25.831 16.3287C25.851 16.4737 25.8418 16.6213 25.8039 16.7626C25.7659 16.904 25.6999 17.0362 25.6099 17.1516C25.5199 17.267 25.4076 17.3632 25.2797 17.4344C25.1518 17.5056 25.011 17.5504 24.8655 17.5662C24.72 17.582 24.5728 17.5684 24.4326 17.5263L17.3889 15.6392C17.1089 15.564 16.8703 15.3808 16.7254 15.1297C16.5805 14.8787 16.5411 14.579 16.616 14.299ZM15.4843 18.5267C15.5595 18.2468 15.7427 18.0081 15.9937 17.8632C16.2447 17.7183 16.543 17.6789 16.823 17.7538L21.0493 18.8869C21.1924 18.9199 21.3274 18.9814 21.4462 19.0677C21.565 19.154 21.6652 19.2634 21.7408 19.3893C21.8165 19.5151 21.866 19.655 21.8864 19.8004C21.9069 19.9458 21.8978 20.0939 21.8598 20.2357C21.8218 20.3776 21.7556 20.5103 21.6652 20.626C21.5748 20.7417 21.462 20.8381 21.3335 20.9093C21.2051 20.9804 21.0636 21.025 20.9176 21.0404C20.7715 21.0557 20.6239 21.0415 20.4835 20.9986L16.2572 19.8669C16.1184 19.8297 15.9884 19.7655 15.8744 19.678C15.7605 19.5905 15.6649 19.4814 15.5931 19.3569C15.5213 19.2324 15.4748 19.0951 15.4561 18.9526C15.4374 18.8102 15.447 18.6654 15.4843 18.5267Z" fill="#E8E8E8"/>
</svg>
