<svg width="28" height="29" viewBox="0 0 28 29" fill="none" xmlns="http://www.w3.org/2000/svg">
<path d="M15.5028 0.760626C15.0967 0.37664 14.5589 0.162689 14 0.162689C13.4411 0.162689 12.9033 0.37664 12.4972 0.760626L1.90094 10.775C1.57649 11.082 1.31815 11.4521 1.14174 11.8624C0.965324 12.2728 0.874559 12.7149 0.875002 13.1616V25.3459C0.875582 26.2158 1.22154 27.0498 1.83683 27.6647C2.45212 28.2796 3.28639 28.625 4.15625 28.625H7.4375C8.30774 28.625 9.14234 28.2793 9.7577 27.6639C10.3731 27.0486 10.7188 26.214 10.7188 25.3438V19.875C10.7188 19.5849 10.834 19.3067 11.0391 19.1016C11.2442 18.8965 11.5224 18.7813 11.8125 18.7813H16.1875C16.4776 18.7813 16.7558 18.8965 16.9609 19.1016C17.166 19.3067 17.2813 19.5849 17.2813 19.875V25.3438C17.2813 26.214 17.627 27.0486 18.2423 27.6639C18.8577 28.2793 19.6923 28.625 20.5625 28.625H23.8438C24.714 28.625 25.5486 28.2793 26.1639 27.6639C26.7793 27.0486 27.125 26.214 27.125 25.3438V13.1594C27.1249 12.7129 27.0336 12.2711 26.8568 11.8612C26.68 11.4512 26.4215 11.0816 26.0969 10.775L15.5028 0.760626Z" fill="#E8E8E8"/>
</svg>
